HIERARCHY
ROOT Hips
{
	OFFSET 0.000000 0.000000 0.000000
	CHANNELS 6 Xposition Yposition Zposition Zrotation Yrotation Xrotation 
	JOINT LowerBack
	{
		OFFSET 0.000000 0.000000 0.000000
		CHANNELS 3 Zrotation Yrotation Xrotation
		JOINT Spine
		{
			OFFSET 0.028270 2.035590 -0.193380
			CHANNELS 3 Zrotation Yrotation Xrotation
			JOINT Spine1
			{
				OFFSET 0.056720 2.048850 -0.042750
				CHANNELS 3 Zrotation Yrotation Xrotation
				JOINT Neck
				{
					OFFSET 0.000000 0.000000 0.000000
					CHANNELS 3 Zrotation Yrotation Xrotation
					JOINT Neck1
					{
						OFFSET -0.054170 1.746240 0.172020
						CHANNELS 3 Zrotation Yrotation Xrotation
						JOINT Head
						{
							OFFSET 0.104070 1.761360 -0.123970
							CHANNELS 3 Zrotation Yrotation Xrotation
							End Site
							{
								OFFSET 0.000000 0.000000 0.000000
							}
						}
					}
				}
				JOINT LeftShoulder
				{
					OFFSET 0.000000 0.000000 0.000000
					CHANNELS 3 Zrotation Yrotation Xrotation
					JOINT LeftArm
					{
						OFFSET 3.362410 1.200890 -0.311210
						CHANNELS 3 Zrotation Yrotation Xrotation
						JOINT LeftForeArm
						{
							OFFSET 4.983000 -0.000000 -0.000000
							CHANNELS 3 Zrotation Yrotation Xrotation
							JOINT LeftHand
							{
								OFFSET 3.483560 -0.000000 -0.000000
								CHANNELS 3 Zrotation Yrotation Xrotation
								JOINT LeftFingerBase
								{
									OFFSET 0.000000 0.000000 0.000000
									CHANNELS 3 Zrotation Yrotation Xrotation
									JOINT LeftHandIndex1
									{
										OFFSET 0.715260 -0.000000 -0.000000
										CHANNELS 3 Zrotation Yrotation Xrotation
										End Site
										{
											OFFSET 0.000000 0.000000 0.000000
										}
									}
								}
								JOINT LThumb
								{
									OFFSET 0.000000 0.000000 0.000000
									CHANNELS 3 Zrotation Yrotation Xrotation
									End Site
									{
										OFFSET 0.000000 0.000000 0.000000
									}
								}
							}
						}
					}
				}
				JOINT RightShoulder
				{
					OFFSET 0.000000 0.000000 0.000000
					CHANNELS 3 Zrotation Yrotation Xrotation
					JOINT RightArm
					{
						OFFSET -3.136600 1.374050 -0.404650
						CHANNELS 3 Zrotation Yrotation Xrotation
						JOINT RightForeArm
						{
							OFFSET -5.241900 -0.000000 -0.000000
							CHANNELS 3 Zrotation Yrotation Xrotation
							JOINT RightHand
							{
								OFFSET -3.444170 -0.000000 -0.000000
								CHANNELS 3 Zrotation Yrotation Xrotation
								JOINT RightFingerBase
								{
									OFFSET 0.000000 0.000000 0.000000
									CHANNELS 3 Zrotation Yrotation Xrotation
									JOINT RightHandIndex1
									{
										OFFSET -0.622530 -0.000000 -0.000000
										CHANNELS 3 Zrotation Yrotation Xrotation
										End Site
										{
											OFFSET 0.000000 0.000000 0.000000
										}
									}
								}
								JOINT RThumb
								{
									OFFSET 0.000000 0.000000 0.000000
									CHANNELS 3 Zrotation Yrotation Xrotation
									End Site
									{
										OFFSET 0.000000 0.000000 0.000000
									}
								}
							}
						}
					}
				}
			}
		}
	}
}
}
MOTION
Frames: 15
Frame Time: 0.008333
3.450844 16.548551 1.244634 -138.781242 -87.319523 162.337919 7.064613 -2.531253 3.752096 0.685645 -2.702931 -2.130170 -6.964258 -2.801222 0.730776 10.712293 1.536188 3.400796 -4.105064 -0.368336 2.688429 0.000000 0.000000 0.000000 -8.538270 -7.847041 1.429516 -62.988452 -28.693140 15.910558 -2.646826 -44.040769 -0.019395 6.338865 -2.981899 -0.182552 -0.139900 0.264453 0.000000 0.000000 0.000000 0.000000 0.000000 0.000000 0.000000 17.825308 -2.344885 1.216992 51.254452 7.723757 -15.750928 3.674155 13.690835 0.013599 -0.708329 7.282863 -0.052384 0.110648 -0.069939 0.000000 0.000000 0.000000 0.000000 0.000000 0.000000 0.000000 
3.272092 16.547920 1.229608 -129.086351 -87.461803 152.496443 7.483164 -2.618426 4.005460 0.776093 -2.788400 -2.099861 -6.949089 -2.892890 0.685269 11.034245 1.995200 3.616146 -4.080629 -0.367382 2.742045 0.000000 0.000000 0.000000 -8.528546 -8.074849 1.439348 -63.504678 -28.314649 15.207001 -2.674214 -42.280300 -0.020702 6.804018 -3.077734 -0.201225 -0.138593 0.257659 0.000000 0.000000 0.000000 0.000000 0.000000 0.000000 0.000000 17.973851 -2.068155 1.169768 51.389364 8.120697 -16.463496 3.638130 13.145527 0.013176 -1.079544 7.377399 -0.077091 0.109518 -0.069649 0.000000 0.000000 0.000000 0.000000 0.000000 0.000000 0.000000 
3.096374 16.552374 1.212467 -119.229886 -87.551427 142.488758 7.817335 -2.697776 4.255911 0.844859 -2.864543 -2.065461 -6.932315 -2.974511 0.654022 11.407184 2.445868 3.853863 -4.049822 -0.366234 2.800689 0.000000 0.000000 0.000000 -8.454514 -8.310319 1.441370 -64.033641 -27.982536 14.548753 -2.700487 -40.349035 -0.021873 7.264819 -3.133725 -0.217803 -0.136947 0.249803 0.000000 0.000000 0.000000 0.000000 0.000000 0.000000 0.000000 18.133174 -1.802656 1.109587 51.617805 8.564877 -17.180020 3.599337 12.599280 0.012694 -1.437626 7.451307 -0.101299 0.108012 -0.068885 0.000000 0.000000 0.000000 0.000000 0.000000 0.000000 0.000000 
2.923269 16.561341 1.192876 -109.410375 -87.597367 132.524596 8.067931 -2.765520 4.489356 0.893206 -2.928886 -2.028665 -6.913544 -3.043502 0.639119 11.824254 2.869706 4.105570 -4.012893 -0.364912 2.862282 0.000000 0.000000 0.000000 -8.327341 -8.547038 1.437084 -64.563129 -27.703022 13.957991 -2.726888 -38.268706 -0.022789 7.687830 -3.136443 -0.229982 -0.134908 0.241003 0.000000 0.000000 0.000000 0.000000 0.000000 0.000000 0.000000 18.298696 -1.559528 1.037188 51.943768 9.045358 -17.880800 3.558712 12.079604 0.012169 -1.770452 7.500539 -0.123906 0.106156 -0.067691 0.000000 0.000000 0.000000 0.000000 0.000000 0.000000 0.000000 
2.752506 16.574300 1.170910 -99.741054 -87.608153 122.723778 8.238707 -2.818791 4.695617 0.922851 -2.979709 -1.991119 -6.892254 -3.098055 0.640603 12.274402 3.247704 4.361946 -3.970983 -0.363475 2.924487 0.000000 0.000000 0.000000 -8.159711 -8.783994 1.427977 -65.082288 -27.472394 13.446719 -2.754337 -36.074683 -0.023347 8.036131 -3.072898 -0.235061 -0.132404 0.231451 0.000000 0.000000 0.000000 0.000000 0.000000 0.000000 0.000000 18.466244 -1.351444 0.954634 52.366276 9.555871 -18.532899 3.517366 11.611543 0.011621 -2.069861 7.524112 -0.144012 0.104013 -0.066150 0.000000 0.000000 0.000000 0.000000 0.000000 0.000000 0.000000 
2.583789 16.590831 1.146791 -90.362719 -87.588978 113.232899 8.335128 -2.855202 4.868725 0.935571 -3.015340 -1.953288 -6.868513 -3.136290 0.660292 12.742499 3.557309 4.609694 -3.926365 -0.361984 2.983786 0.000000 0.000000 0.000000 -7.968595 -9.008079 1.415429 -65.579899 -27.297367 13.031538 -2.784901 -33.802131 -0.023480 8.276868 -2.936352 -0.231237 -0.129491 0.221375 0.000000 0.000000 0.000000 0.000000 0.000000 0.000000 0.000000 18.634070 -1.195257 0.863892 52.877727 10.105873 -19.089334 3.476608 11.211403 0.011079 -2.332852 7.525917 -0.161320 0.101687 -0.064370 0.000000 0.000000 0.000000 0.000000 0.000000 0.000000 0.000000 
2.416885 16.610709 1.121152 -81.442689 -87.538057 104.224095 8.372330 -2.871745 5.004836 0.935168 -3.033324 -1.917712 -6.841789 -3.155954 0.691757 13.210564 3.803389 4.845286 -3.879994 -0.360504 3.039489 0.000000 0.000000 0.000000 -7.771786 -9.225878 1.402815 -66.044795 -27.151248 12.703998 -2.818506 -31.511391 -0.023168 8.377714 -2.713964 -0.216708 -0.126100 0.211017 0.000000 0.000000 0.000000 0.000000 0.000000 0.000000 0.000000 18.791196 -1.079460 0.768945 53.476700 10.667769 -19.538575 3.436928 10.910374 0.010555 -2.545310 7.507686 -0.174725 0.099192 -0.062518 0.000000 0.000000 0.000000 0.000000 0.000000 0.000000 0.000000 
2.251583 16.633786 1.094603 -73.246112 -87.457494 95.967135 8.361511 -2.866702 5.103850 0.924606 -3.031739 -1.885721 -6.812510 -3.155232 0.730499 13.660775 3.983866 5.062705 -3.834172 -0.359133 3.090156 0.000000 0.000000 0.000000 -7.581168 -9.440345 1.392068 -66.468392 -27.009838 12.451264 -2.855143 -29.263841 -0.022428 8.317461 -2.401511 -0.191273 -0.122234 0.200600 0.000000 0.000000 0.000000 0.000000 0.000000 0.000000 0.000000 18.933970 -1.002457 0.673368 54.153560 11.236021 -19.844079 3.398988 10.725796 0.010068 -2.702276 7.475882 -0.184130 0.096591 -0.060729 0.000000 0.000000 0.000000 0.000000 0.000000 0.000000 0.000000 
2.086361 16.660937 1.077400 -55.501819 -86.999531 78.301414 8.700803 -2.960076 5.006736 0.978595 -3.166672 -1.893205 -6.772263 -3.295087 0.781858 14.021495 4.100971 5.248738 -3.782417 -0.356858 3.140161 0.000000 0.000000 0.000000 -7.582552 -9.685311 1.411433 -66.862996 -26.913722 12.288219 -2.893760 -27.066072 -0.021669 8.090207 -2.002720 -0.156836 -0.117381 0.192604 0.000000 0.000000 0.000000 0.000000 0.000000 0.000000 0.000000 18.939745 -1.057598 0.557356 54.866726 11.805034 -19.972629 3.372351 10.666966 0.009719 -2.802631 7.440487 -0.189632 0.094310 -0.058326 0.000000 0.000000 0.000000 0.000000 0.000000 0.000000 0.000000 
1.924273 16.690317 1.051033 -50.740914 -86.818853 73.540425 8.643563 -2.913210 5.044300 0.961294 -3.124515 -1.867711 -6.742349 -3.252173 0.830206 14.383873 4.161249 5.409945 -3.744424 -0.355858 3.175811 0.000000 0.000000 0.000000 -7.441448 -9.842917 1.410143 -67.186776 -26.776360 12.195651 -2.938618 -25.041281 -0.020213 7.697969 -1.529599 -0.116284 -0.113032 0.182633 0.000000 0.000000 0.000000 0.000000 0.000000 0.000000 0.000000 19.045446 -1.037972 0.465608 55.666292 12.387779 -19.893490 3.339415 10.748870 0.009345 -2.841048 7.404890 -0.191032 0.091666 -0.057016 0.000000 0.000000 0.000000 0.000000 0.000000 0.000000 0.000000 
1.763861 16.723101 1.025600 -46.898472 -86.657570 69.725212 8.563061 -2.847768 5.062208 0.939900 -3.063764 -1.846083 -6.714267 -3.190094 0.877170 14.683754 4.183901 5.543183 -3.713251 -0.355154 3.204162 0.000000 0.000000 0.000000 -7.333431 -9.965353 1.416551 -67.450071 -26.617321 12.170074 -2.988970 -23.202371 -0.018533 7.156421 -0.990150 -0.073222 -0.108692 0.173091 0.000000 0.000000 0.000000 0.000000 0.000000 0.000000 0.000000 19.133373 -1.025078 0.378581 56.510498 12.964525 -19.591630 3.308453 10.980054 0.009028 -2.817036 7.377058 -0.188631 0.088955 -0.056035 0.000000 0.000000 0.000000 0.000000 0.000000 0.000000 0.000000 
1.605201 16.759339 1.001407 -43.938752 -86.528224 66.816736 8.463348 -2.764632 5.069104 0.914837 -2.984624 -1.828722 -6.689463 -3.109319 0.916313 14.914258 4.188926 5.653682 -3.689916 -0.354817 3.226835 0.000000 0.000000 0.000000 -7.253677 -10.062136 1.431451 -67.650597 -26.404292 12.188689 -3.042882 -21.599623 -0.016734 6.491598 -0.397708 -0.031853 -0.104421 0.164053 0.000000 0.000000 0.000000 0.000000 0.000000 0.000000 0.000000 19.203695 -1.000341 0.298035 57.389218 13.521237 -19.056146 3.278624 11.367872 0.008761 -2.732244 7.361936 -0.182526 0.086129 -0.055438 0.000000 0.000000 0.000000 0.000000 0.000000 0.000000 0.000000 
1.448425 16.798999 0.978632 -41.789633 -86.442414 64.736546 8.346264 -2.666618 5.074531 0.885935 -2.889257 -1.813586 -6.670251 -3.011917 0.949305 15.071995 4.188420 5.740143 -3.675481 -0.354834 3.243454 0.000000 0.000000 0.000000 -7.205520 -10.104254 1.455433 -67.784354 -26.158646 12.278844 -3.101705 -20.240342 -0.014903 5.739671 0.220708 0.003825 -0.100537 0.155603 0.000000 0.000000 0.000000 0.000000 0.000000 0.000000 0.000000 19.260424 -0.952504 0.222155 58.291050 14.060822 -18.277549 3.248964 11.912610 0.008535 -2.593808 7.363417 -0.173320 0.083151 -0.055235 0.000000 0.000000 0.000000 0.000000 0.000000 0.000000 0.000000 
1.293571 16.841934 0.957225 -40.361032 -86.405548 63.387911 8.211600 -2.555698 5.084730 0.852802 -2.779188 -1.802017 -6.656899 -2.899796 0.966931 15.159857 4.200610 5.813673 -3.669916 -0.355297 3.257273 0.000000 0.000000 0.000000 -7.172065 -10.129631 1.487820 -67.851909 -25.822161 12.395468 -3.160513 -19.173916 -0.013144 4.939714 0.849602 0.031409 -0.096966 0.147749 0.000000 0.000000 0.000000 0.000000 0.000000 0.000000 0.000000 19.305589 -0.868155 0.153113 59.205965 14.567368 -17.264363 3.218026 12.610314 0.008337 -2.407906 7.386142 -0.161611 0.079942 -0.055484 0.000000 0.000000 0.000000 0.000000 0.000000 0.000000 0.000000 
1.140615 16.887814 0.936939 -39.541692 -86.422139 62.652364 8.055848 -2.435997 5.107010 0.814352 -2.658007 -1.791751 -6.650793 -2.776390 0.972216 15.183413 4.233299 5.873879 -3.673106 -0.356151 3.268039 0.000000 0.000000 0.000000 -7.153659 -10.112288 1.528236 -67.852721 -25.423574 12.574085 -3.220023 -18.381548 -0.011520 4.134718 1.453035 0.048999 -0.094013 0.140556 0.000000 0.000000 0.000000 0.000000 0.000000 0.000000 0.000000 19.344879 -0.741341 0.088071 60.124971 15.044189 -16.029237 3.183989 13.453690 0.008153 -2.186389 7.431204 -0.147803 0.076451 -0.056194 0.000000 0.000000 0.000000 0.000000 0.000000 0.000000 0.000000 
